<svg xmlns="http://www.w3.org/2000/svg" width="24" height="24" viewBox="0 0 24 24"><path fill="#7c529c" d="M0 0h24v24H0z"/><path fill="#fff" d="M16.22 14a1.66 1.66 0 0 0-1.47 1 1.67 1.67 0 0 1-2.35.54 7.73 7.73 0 0 1-2.4-1.6 7.75 7.75 0 0 1-1.58-2.36A1.68 1.68 0 0 1 9 9.22a1.67 1.67 0 0 0 1-1.48c-.05-1-2.38-4.18-3.3-4.52a1.67 1.67 0 0 0-1.15 0 3.25 3.25 0 0 0-2.2 4.61 23.28 23.28 0 0 0 5 7.79 23.21 23.21 0 0 0 7.77 5 3.24 3.24 0 0 0 4.6-2.2 1.68 1.68 0 0 0 0-1.15c-.33-.87-3.54-3.2-4.5-3.27zM21 9.86a7.45 7.45 0 0 0-2.17-4.6A7.67 7.67 0 0 0 14.05 3a7.14 7.14 0 0 0-1.74.06.62.62 0 0 0 .19 1.22 5.89 5.89 0 0 1 1.44 0 6.43 6.43 0 0 1 4 1.88 6.21 6.21 0 0 1 1.8 3.84 5.63 5.63 0 0 1-.06 1.44.62.62 0 0 0 .5.72h.11a.62.62 0 0 0 .61-.51 6.86 6.86 0 0 0 .1-1.79z"/><path fill="#fff" d="M18.21 11.6h.08a.62.62 0 0 0 .61-.54 4.82 4.82 0 0 0 0-1 5.38 5.38 0 0 0-1.58-3.32 5.61 5.61 0 0 0-3.47-1.64 5.11 5.11 0 0 0-1.09 0 .62.62 0 0 0 .16 1.23 3.87 3.87 0 0 1 .82 0 4.37 4.37 0 0 1 2.7 1.29 4.14 4.14 0 0 1 1.22 2.55 3.57 3.57 0 0 1 0 .75.62.62 0 0 0 .55.68z"/><path fill="#fff" d="M13.7 7.14h-.4a.62.62 0 0 0 .05 1.24h.24a2.32 2.32 0 0 1 2.05 2 1.57 1.57 0 0 1 0 .24.62.62 0 0 0 .57.66.62.62 0 0 0 .62-.58 2.8 2.8 0 0 0 0-.43 3.52 3.52 0 0 0-3.13-3.13z"/></svg>