<svg xmlns="http://www.w3.org/2000/svg" width="234.6" height="98" viewBox="0 0 234.6 98"><g id="icon"><path fill="#fff" d="M42.5 98a1 1 0 0 1-.5-.1L.5 73.9A1 1 0 0 1 0 73V25a1.1 1.1 0 0 1 0-.3 1 1 0 0 1 .1-.2.8.8 0 0 1 .2-.2 1.6 1.6 0 0 1 .2-.2L42 .1a1 1 0 0 1 .3 0 1.1 1.1 0 0 1 .5 0 1.2 1.2 0 0 1 .2 0l41.5 24a.8.8 0 0 1 .2.2 1.2 1.2 0 0 1 .1.2 1 1 0 0 1 .1.3 1.1 1.1 0 0 1 .1.2v48a1.1 1.1 0 0 1 0 .3 1 1 0 0 1-.1.2 1.5 1.5 0 0 1-.2.2.8.8 0 0 1-.2.2L43 97.9a1 1 0 0 1-.5.1z"/><path fill="#16334f" d="M85 24.7a1 1 0 0 0-.1-.2 1.2 1.2 0 0 0-.2-.2.8.8 0 0 0-.2-.2L43 .1a1.2 1.2 0 0 0-.2 0 1.1 1.1 0 0 0-.6 0 1 1 0 0 0-.2 0L.5 24.1a1.6 1.6 0 0 0-.2.2.8.8 0 0 0-.2.2 1 1 0 0 0 0 .2 1.2 1.2 0 0 0-.1.3v48a1 1 0 0 0 .5.9l41.5 24a1 1 0 0 0 1 0l41.5-24a.8.8 0 0 0 .2-.2 1.5 1.5 0 0 0 .1-.2 1 1 0 0 0 .1-.2 1.2 1.2 0 0 0 .1-.3V25a1.2 1.2 0 0 0 0-.3zM39.5 85.5L9.5 68V33.5l30 16z"/><path fill="#fff" d="M9.5 68l30 17.5v-36l-30-16V68z"/><path fill="#16334f" d="M27.7 64.1l-.7-1.9a3.5 3.5 0 0 1-1.2.9 3.2 3.2 0 0 1-1.3.3 3 3 0 0 1-1.4-.4 3.4 3.4 0 0 1-1.2-1 5.4 5.4 0 0 1-.7-1.6 7.2 7.2 0 0 1-.3-2 7.4 7.4 0 0 1 .3-2 5.4 5.4 0 0 1 .7-1.6 3 3 0 0 1 1.1-1 2.8 2.8 0 0 1 1.4-.4 2.9 2.9 0 0 1 1.3.3 4.6 4.6 0 0 1 1 .7l.8-1.9a3.9 3.9 0 0 0-1.3-1 4 4 0 0 0-1.8-.5 4.4 4.4 0 0 0-2.3.6 5 5 0 0 0-1.7 1.5 7.8 7.8 0 0 0-1 2.4 11.2 11.2 0 0 0-.4 2.9 10.7 10.7 0 0 0 .4 3 7.6 7.6 0 0 0 1.1 2.3 5 5 0 0 0 1.7 1.5 4.6 4.6 0 0 0 2.2.6 4 4 0 0 0 1-.2 4.9 4.9 0 0 0 .9-.3 3.6 3.6 0 0 0 .8-.5 3.4 3.4 0 0 0 .6-.7z"/><path fill="#03a49b" d="M79.2 69.1l3.8 2.2V25.6L42.5 2.2 2 25.6v45.7L5.8 69V28.3a1 1 0 0 1 .5-.8L42 6.8a1 1 0 0 1 1 0l35.7 20.7a1 1 0 0 1 .5.9z"/><path fill="#fff" d="M37 21v10.7h4.4a15.7 15.7 0 0 0 3.9-.4A9.7 9.7 0 0 0 48 30a5 5 0 0 0 1.7-1.7 4.2 4.2 0 0 0 .5-2.1 4.2 4.2 0 0 0-.5-2 4.7 4.7 0 0 0-1.5-1.7 8.8 8.8 0 0 0-2.8-1.2 16.3 16.3 0 0 0-4-.4h-4.3zm4.4 1.7a11.3 11.3 0 0 1 2.5.3 6.5 6.5 0 0 1 2 .7 3.3 3.3 0 0 1 1.1 1 2.6 2.6 0 0 1 .4 1.5 3 3 0 0 1-.4 1.5 3.4 3.4 0 0 1-1.2 1.2 6.5 6.5 0 0 1-1.8.7 10.6 10.6 0 0 1-2.5.3h-1.8v-7.1h.9l.8-.1z"/><path fill="#fff" d="M42.5 98a1 1 0 0 1-.5-.1L.5 73.9A1 1 0 0 1 0 73V25a1.1 1.1 0 0 1 0-.3 1 1 0 0 1 .1-.2.8.8 0 0 1 .2-.2 1.6 1.6 0 0 1 .2-.2L42 .1a1 1 0 0 1 .3 0 1.1 1.1 0 0 1 .5 0 1.2 1.2 0 0 1 .2 0l41.5 24a.8.8 0 0 1 .2.2 1.2 1.2 0 0 1 .1.2 1 1 0 0 1 .1.3 1.1 1.1 0 0 1 .1.2v48a1.1 1.1 0 0 1 0 .3 1 1 0 0 1-.1.2 1.5 1.5 0 0 1-.2.2.8.8 0 0 1-.2.2L43 97.9a1 1 0 0 1-.5.1zM2 72.4l40.5 23.4L82 73l-3.8-2.2L43 91.2a1 1 0 0 1-.3 0 1 1 0 0 1-.5 0 .9.9 0 0 1-.2 0L6.3 70.5a1 1 0 0 1-.5-.8V28.3a1 1 0 0 1 .5-.8l.5-.3 17.3-10L42 6.8a1 1 0 0 1 1 0l35.7 20.7a1 1 0 0 1 .5.9V69l3.8 2.2V25.6l-1-.6L43.5 2.7l-1-.5-1 .5L3 25l-1 .6v46.8zm41.5-24.1v40.3l33.7-19.5V30zM7.8 69l33.7 19.5V48.3L7.8 30zm1-40.8l33.7 18.2 33.7-18.2L42.5 8.8z"/><path fill="#fff" d="M59.3 50.3v17.2l2.8-1.3V49z"/></g><g id="text" fill="#fff"><path d="M97.7 46.3a.7.7 0 0 1-.5-.1.6.6 0 0 1-.2-.5v-6.3a.6.6 0 0 1 .2-.5.7.7 0 0 1 .5-.1h.4q1.2 0 1.7-2.1a25.5 25.5 0 0 0 .5-5.8v-5.1a.6.6 0 0 1 .1-.5.7.7 0 0 1 .5-.2h12a.6.6 0 0 1 .5.2.6.6 0 0 1 .1.5v13h1.2a.6.6 0 0 1 .5.1.6.6 0 0 1 .2.5v6.3a.6.6 0 0 1-.2.5.6.6 0 0 1-.5.1h-3.2a.7.7 0 0 1-.5-.1.6.6 0 0 1-.2-.5v-2.9h-9.2v2.9a.6.6 0 0 1-.2.5.6.6 0 0 1-.4.1zm11.3-7.5v-9.6h-4.3v2.3q0 5.1-1.1 7.3zM118.7 42.8a.6.6 0 0 1-.5-.2.7.7 0 0 1-.2-.4V25.8a.6.6 0 0 1 .2-.5.7.7 0 0 1 .5-.2h3.3a.6.6 0 0 1 .5.2.6.6 0 0 1 .2.5v10.1l7.2-10.3a1 1 0 0 1 .9-.5h3a.6.6 0 0 1 .4.2.6.6 0 0 1 .2.4v16.5a.7.7 0 0 1-.2.4.6.6 0 0 1-.4.2h-3.3a.7.7 0 0 1-.5-.2.6.6 0 0 1-.2-.4v-9.8l-7.2 10a1 1 0 0 1-1 .5zM138.2 37a.6.6 0 0 1-.5-.2.6.6 0 0 1-.2-.4V34a.6.6 0 0 1 .2-.5.6.6 0 0 1 .5-.1h8a.6.6 0 0 1 .4.1.6.6 0 0 1 .2.5v2.4a.6.6 0 0 1-.2.4.6.6 0 0 1-.4.2zM157.4 43a8.6 8.6 0 0 1-5.8-1.7 6.8 6.8 0 0 1-2.1-5V34v-2.3a6.6 6.6 0 0 1 2.2-5 8.4 8.4 0 0 1 5.7-1.8 10.3 10.3 0 0 1 4 .8 6.4 6.4 0 0 1 2.8 2 5.2 5.2 0 0 1 1 3.3.5.5 0 0 1 0 .3.6.6 0 0 1-.5.2h-3.4a.9.9 0 0 1-.5-.1 1.2 1.2 0 0 1-.3-.6 3 3 0 0 0-1.1-1.8 3.5 3.5 0 0 0-2-.5q-3 0-3.2 3.3V36q.2 3.4 3.2 3.4a3.6 3.6 0 0 0 2-.6 3 3 0 0 0 1-1.7.9.9 0 0 1 .3-.6.8.8 0 0 1 .6-.1h3.4a.5.5 0 0 1 .4.1.4.4 0 0 1 .2.4 5.3 5.3 0 0 1-1.1 3.3 6.7 6.7 0 0 1-2.8 2 10.6 10.6 0 0 1-4 .9zM168.6 42.8a.6.6 0 0 1-.4-.2.7.7 0 0 1-.2-.4V25.8a.6.6 0 0 1 .2-.5.7.7 0 0 1 .4-.2h3.3a.6.6 0 0 1 .5.2.6.6 0 0 1 .2.5v10.1l7.2-10.3a1 1 0 0 1 1-.5h3a.6.6 0 0 1 .4.2.6.6 0 0 1 .2.4v16.5a.7.7 0 0 1-.2.4.6.6 0 0 1-.5.2h-3.3a.7.7 0 0 1-.5-.2.6.6 0 0 1-.2-.4v-9.8l-7.2 10a1 1 0 0 1-.9.5zM188.1 37a.6.6 0 0 1-.4-.2.6.6 0 0 1-.2-.4V34a.6.6 0 0 1 .2-.5.6.6 0 0 1 .4-.1h8a.6.6 0 0 1 .5.1.6.6 0 0 1 .2.5v2.4a.6.6 0 0 1-.2.4.6.6 0 0 1-.5.2zM199 42.8a.6.6 0 0 1-.4-.1.6.6 0 0 1-.1-.4.8.8 0 0 1 0-.2l6-16.3a1 1 0 0 1 .3-.5 1 1 0 0 1 .7-.2h3.7a1 1 0 0 1 .7.2 1 1 0 0 1 .3.5l6 16.3v.2a.5.5 0 0 1-.1.4.5.5 0 0 1-.4.1h-3.1a.8.8 0 0 1-.8-.5l-1-2.6h-6.9l-1 2.6a.8.8 0 0 1-.8.5zm10.8-6.7l-2.4-6.7-2.4 6.7zM219 42.8a.6.6 0 0 1-.6-.2.7.7 0 0 1-.1-.4V25.8a.6.6 0 0 1 .1-.5.7.7 0 0 1 .5-.2h3.3a.6.6 0 0 1 .5.2.6.6 0 0 1 .2.5v10.1l7.2-10.3a1 1 0 0 1 .9-.5h3a.6.6 0 0 1 .4.2.6.6 0 0 1 .2.4v16.5a.7.7 0 0 1-.1.4.6.6 0 0 1-.5.2h-3.3a.7.7 0 0 1-.5-.2.6.6 0 0 1-.2-.4v-9.8l-7.2 10a1 1 0 0 1-.9.5zm7.5-18.7a5 5 0 0 1-3.4-1 3.4 3.4 0 0 1-1.1-2.6.5.5 0 0 1 .5-.5h2a.5.5 0 0 1 .5.5q0 1.3 1.5 1.3t1.5-1.3a.5.5 0 0 1 .5-.5h2a.5.5 0 0 1 .5.5 3.4 3.4 0 0 1-1.1 2.6 5 5 0 0 1-3.4 1zM98.7 72.8a.7.7 0 0 1-.4-.1.6.6 0 0 1-.1-.5v-12a.5.5 0 0 1 .1-.4.6.6 0 0 1 .4-.2h7.7a.5.5 0 0 1 .4.2.5.5 0 0 1 .2.4v.9a.6.6 0 0 1-.2.4.6.6 0 0 1-.4.2h-5.8v10.5a.6.6 0 0 1-.2.4.6.6 0 0 1-.4.2zM109.7 77.6a.6.6 0 0 1-.4-.2.5.5 0 0 1-.1-.4V60.2a.5.5 0 0 1 .1-.4.6.6 0 0 1 .4-.1h1.2a.5.5 0 0 1 .4.1.5.5 0 0 1 .2.5v1a4.9 4.9 0 0 1 4.2-1.9 4.8 4.8 0 0 1 4 1.7 7 7 0 0 1 1.5 4.3V67a7.1 7.1 0 0 1-1.5 4.3 4.9 4.9 0 0 1-4 1.7 5 5 0 0 1-4.1-2V77a.5.5 0 0 1-.2.4.5.5 0 0 1-.4.2zm5.5-6.6a3 3 0 0 0 2.6-1.1 5 5 0 0 0 1-3v-.7q0-4.7-3.7-4.7a3.1 3.1 0 0 0-2.6 1.1 4.8 4.8 0 0 0-1 2.7v2a4.2 4.2 0 0 0 1 2.6 3.2 3.2 0 0 0 2.7 1.1zM134.8 59.7a.5.5 0 0 1 .3.1.5.5 0 0 1 .2.4 1.2 1.2 0 0 1-.2.4L130.3 72l-.2.5-1.3 2.6a6 6 0 0 1-1.4 1.8 3 3 0 0 1-2 .7h-1a.7.7 0 0 1-.4-.1.6.6 0 0 1-.2-.5v-.8a.6.6 0 0 1 .2-.5.7.7 0 0 1 .4-.1h.7a1.7 1.7 0 0 0 .9-.2 1.8 1.8 0 0 0 .6-.8 12.4 12.4 0 0 0 .8-1.5l.4-1-5-11.4a1.6 1.6 0 0 1-.1-.5.6.6 0 0 1 .2-.3.5.5 0 0 1 .3-.2h1.2a.7.7 0 0 1 .7.4l3.9 9.3 4-9.3a.6.6 0 0 1 .6-.4zM138.4 72.8a.7.7 0 0 1-.4-.1.6.6 0 0 1-.1-.5v-12a.5.5 0 0 1 .1-.4.6.6 0 0 1 .4-.2h10.2a.5.5 0 0 1 .4.2.5.5 0 0 1 .2.4v12a.6.6 0 0 1-.2.4.6.6 0 0 1-.4.2h-1.3a.6.6 0 0 1-.4-.1.6.6 0 0 1-.1-.5V61.7h-6.6v10.5a.6.6 0 0 1-.1.4.6.6 0 0 1-.4.2zM153.6 72.8a.7.7 0 0 1-.5-.1.6.6 0 0 1-.1-.5v-12a.5.5 0 0 1 .1-.4.6.6 0 0 1 .5-.2h10a.5.5 0 0 1 .5.2.5.5 0 0 1 .2.4v12a.6.6 0 0 1-.2.4.6.6 0 0 1-.4.2h-1.2a.6.6 0 0 1-.4-.1.6.6 0 0 1-.2-.5V61.7h-6.5v10.5a.6.6 0 0 1-.2.4.6.6 0 0 1-.4.2z"/></g></svg>