<svg xmlns="http://www.w3.org/2000/svg" width="180" height="93" viewBox="0 0 180 93"><path fill="#03a49b" d="M148.5 75H121v15h56V75h-28.5zM88 57H32v15h56V57z"/><path fill="#fff" d="M62 39v15h56V39H62zM118 18V3H62v15h56zM29 75H3v15h56V75H29zM60.5 36H88V21H32v15h28.5zM62 75v15h56V75H62zM147 72V57H91v15h56z"/><path fill="#03a49b" d="M91 36h56V21H91v15z"/><path fill="#16334f" d="M178.5 72H150V54h-29V39h29V18h-29V0H59v18H29v21h30v15H29v18H0v21h180V72zM177 90h-56V75h56zm-56-69h26v15H91V21h30zm-3 18v15H62V39h56zM62 3h56v15H62zM32 36V21h56v15H32zm27 54H3V75h56zM32 72V57h56v15H32zm86 18H62V75h56zM91 72V57h56v15H91z"/></svg>