<svg xmlns="http://www.w3.org/2000/svg" width="85" height="98" data-name="Layer 1" viewBox="0 0 85 98"><path fill="#fff" d="M42.5 98a.9.9 0 0 1-.5-.1L.5 73.9A1 1 0 0 1 0 73V24.7a.3.3 0 0 1 .1-.2l.2-.2.2-.2L42 .1a.3.3 0 0 0 .2-.1h.6a.3.3 0 0 1 .2.1l41.5 24 .2.2.2.2a.3.3 0 0 0 .1.2v48.6a.3.3 0 0 1-.1.2l-.2.2-.2.2-41.5 24a.9.9 0 0 1-.5.1z"/><path fill="#16334f" d="M85 24.7a.3.3 0 0 0-.1-.2.2.2 0 0 0-.2-.2l-.2-.2L43 .1a.3.3 0 0 1-.2-.1h-.6a.3.3 0 0 0-.2.1L.5 24.1l-.2.2-.2.2a.3.3 0 0 1-.1.2V73a1 1 0 0 0 .5.9l41.5 24a.8.8 0 0 0 .5.1.9.9 0 0 0 .5-.1l41.5-24 .2-.2.2-.2a.3.3 0 0 1 .1-.2V24.7zM39.5 85.5L9.5 68V33.5l30 16z"/><path fill="#fff" d="M9.5 68l30 17.5v-36l-30-16z"/><path fill="#16334f" d="M27.7 64.1l-.7-1.9a3.5 3.5 0 0 1-1.2.9A3 3 0 0 1 23 63a3.5 3.5 0 0 1-1.1-1 3.9 3.9 0 0 1-.7-1.6 12 12 0 0 1-.3-2 6.7 6.7 0 0 1 .3-2.1 7.7 7.7 0 0 1 .7-1.6 3.5 3.5 0 0 1 1.1-1 3.2 3.2 0 0 1 1.4-.3 2.5 2.5 0 0 1 1.3.3 3.6 3.6 0 0 1 1 .7l.8-1.9a3.3 3.3 0 0 0-1.3-1 3.4 3.4 0 0 0-1.8-.4 4.4 4.4 0 0 0-2.3.6 5.2 5.2 0 0 0-1.7 1.6 8 8 0 0 0-1 2.3 13.5 13.5 0 0 0-.4 2.9 9.5 9.5 0 0 0 .4 3 7 7 0 0 0 1.1 2.3 4.9 4.9 0 0 0 1.7 1.5 5.5 5.5 0 0 0 2.2.5 3.4 3.4 0 0 0 1-.1l.9-.3a2.2 2.2 0 0 0 .8-.5 2.1 2.1 0 0 0 .6-.8z"/><path fill="#03a49b" d="M79.2 69.1l3.8 2.2V25.6L42.5 2.2 2 25.6v45.7l3.8-2.2V28.3a1 1 0 0 1 .5-.9L42 6.8a1 1 0 0 1 1 0l35.7 20.7a1 1 0 0 1 .5.9z"/><path fill="#fff" d="M37 21.1v10.6h4.3a15 15 0 0 0 3.9-.4 9 9 0 0 0 2.8-1.2 5.5 5.5 0 0 0 1.7-1.7 4.2 4.2 0 0 0 .6-2.1 4.5 4.5 0 0 0-.5-2 4.3 4.3 0 0 0-1.6-1.7 6.7 6.7 0 0 0-2.7-1.1 16 16 0 0 0-4-.4zm4.4 1.6a9.5 9.5 0 0 1 2.5.3 8.4 8.4 0 0 1 1.9.7 4.3 4.3 0 0 1 1.2 1.1 2.3 2.3 0 0 1 .4 1.4 2.4 2.4 0 0 1-.4 1.5 3.4 3.4 0 0 1-1.2 1.2 4.7 4.7 0 0 1-1.9.7 9.5 9.5 0 0 1-2.5.3h-1.7v-7.1h.9a2.2 2.2 0 0 1 .8-.1z"/><path fill="#fff" d="M42.5 98a.9.9 0 0 1-.5-.1L.5 73.9A1 1 0 0 1 0 73V24.7a.3.3 0 0 1 .1-.2l.2-.2.2-.2L42 .1a.3.3 0 0 0 .2-.1h.6a.3.3 0 0 1 .2.1l41.5 24 .2.2.2.2a.3.3 0 0 0 .1.2v48.6a.3.3 0 0 1-.1.2l-.2.2-.2.2-41.5 24a.9.9 0 0 1-.5.1zM2 72.4l40.5 23.4L82 73l-3.8-2.2L43 91.2a.3.3 0 0 0-.2.1h-.4a.3.3 0 0 1-.2-.1L6.3 70.5a1 1 0 0 1-.5-.8V28.3a1 1 0 0 1 .5-.9l.5-.3 17.4-10L42 6.8a1 1 0 0 1 1 0l35.7 20.7a1 1 0 0 1 .5.9v40.8l3.8 2.2V25.6l-1-.6L43.5 2.7l-1-.6-1 .6L3 25l-1 .6zm41.5-24.1v40.3l33.7-19.5V30zM7.8 69.1l33.7 19.5V48.3L7.8 30zm1-40.8l33.7 18.2 33.7-18.2L42.5 8.8z"/><path fill="#fff" d="M59.3 50.3v17.2l2.8-1.3V49z"/></svg>