<svg xmlns="http://www.w3.org/2000/svg" width="234.8" height="98.01" viewBox="0 0 234.8 98.01"><title>dci-logo--footer</title><path d="M42.5,98a.9.9,0,0,1-.5-.1L.5,73.9A1,1,0,0,1,0,73V24.7a.3.3,0,0,1,.1-.2l.2-.2.2-.2L42,.1a.3.3,0,0,0,.2-.1h.6a.3.3,0,0,1,.2.1l41.5,24,.2.2.2.2a.3.3,0,0,0,.1.2V73.3a.3.3,0,0,1-.1.2l-.2.2-.2.2L43,97.9A.9.9,0,0,1,42.5,98Z" transform="translate(0)" fill="#fff"/><path d="M85,24.7a.3.3,0,0,0-.1-.2.2.2,0,0,0-.2-.2l-.2-.2L43,.1a.3.3,0,0,1-.2-.1h-.6a.3.3,0,0,0-.2.1L.5,24.1l-.2.2-.2.2a.3.3,0,0,1-.1.2V73a1,1,0,0,0,.5.9L42,97.9a.8.8,0,0,0,.5.1.9.9,0,0,0,.5-.1l41.5-24,.2-.2.2-.2a.3.3,0,0,1,.1-.2ZM39.5,85.5,9.5,68V33.5l30,16Z" transform="translate(0)" fill="#16334f"/><path d="M9.5,68l30,17.5v-36l-30-16Z" transform="translate(0)" fill="#fff"/><path d="M27.7,64.1,27,62.2a3.5,3.5,0,0,1-1.2.9A3,3,0,0,1,23,63a3.5,3.5,0,0,1-1.1-1,3.9,3.9,0,0,1-.7-1.6,12,12,0,0,1-.3-2,6.7,6.7,0,0,1,.3-2.1,7.7,7.7,0,0,1,.7-1.6,3.5,3.5,0,0,1,1.1-1,3.2,3.2,0,0,1,1.4-.3,2.5,2.5,0,0,1,1.3.3,3.6,3.6,0,0,1,1,.7l.8-1.9a3.3,3.3,0,0,0-1.3-1,3.4,3.4,0,0,0-1.8-.4,4.4,4.4,0,0,0-2.3.6,5.2,5.2,0,0,0-1.7,1.6,8,8,0,0,0-1,2.3,13.5,13.5,0,0,0-.4,2.9,9.5,9.5,0,0,0,.4,3,7,7,0,0,0,1.1,2.3,4.9,4.9,0,0,0,1.7,1.5,5.5,5.5,0,0,0,2.2.5,3.4,3.4,0,0,0,1-.1l.9-.3a2.2,2.2,0,0,0,.8-.5A2.1,2.1,0,0,0,27.7,64.1Z" transform="translate(0)" fill="#16334f"/><path d="M79.2,69.1,83,71.3V25.6L42.5,2.2,2,25.6V71.3l3.8-2.2V28.3a1,1,0,0,1,.5-.9L42,6.8a1,1,0,0,1,1,0L78.7,27.5a1,1,0,0,1,.5.9Z" transform="translate(0)" fill="#03a49b"/><path d="M37,21.1V31.7h4.3a15,15,0,0,0,3.9-.4A9,9,0,0,0,48,30.1a5.5,5.5,0,0,0,1.7-1.7,4.2,4.2,0,0,0,.6-2.1,4.5,4.5,0,0,0-.5-2,4.3,4.3,0,0,0-1.6-1.7,6.7,6.7,0,0,0-2.7-1.1,16,16,0,0,0-4-.4Zm4.4,1.6a9.5,9.5,0,0,1,2.5.3,8.4,8.4,0,0,1,1.9.7A4.3,4.3,0,0,1,47,24.8a2.3,2.3,0,0,1,.4,1.4,2.4,2.4,0,0,1-.4,1.5,3.4,3.4,0,0,1-1.2,1.2,4.7,4.7,0,0,1-1.9.7,9.5,9.5,0,0,1-2.5.3H39.7V22.8h.9A2.2,2.2,0,0,1,41.4,22.7Z" transform="translate(0)" fill="#fff"/><path d="M42.5,98a.9.9,0,0,1-.5-.1L.5,73.9A1,1,0,0,1,0,73V24.7a.3.3,0,0,1,.1-.2l.2-.2.2-.2L42,.1a.3.3,0,0,0,.2-.1h.6a.3.3,0,0,1,.2.1l41.5,24,.2.2.2.2a.3.3,0,0,0,.1.2V73.3a.3.3,0,0,1-.1.2l-.2.2-.2.2L43,97.9A.9.9,0,0,1,42.5,98ZM2,72.4,42.5,95.8,82,73l-3.8-2.2L43,91.2a.3.3,0,0,0-.2.1h-.4a.3.3,0,0,1-.2-.1L6.3,70.5a1,1,0,0,1-.5-.8V28.3a1,1,0,0,1,.5-.9l.5-.3,17.4-10L42,6.8a1,1,0,0,1,1,0L78.7,27.5a1,1,0,0,1,.5.9V69.2L83,71.4V25.6L82,25,43.5,2.7l-1-.6-1,.6L3,25l-1,.6ZM43.5,48.3V88.6L77.2,69.1V30ZM7.8,69.1,41.5,88.6V48.3L7.8,30Zm1-40.8L42.5,46.5,76.2,28.3,42.5,8.8Z" transform="translate(0)" fill="#fff"/><path d="M59.3,50.3V67.5l2.8-1.3V49Z" transform="translate(0)" fill="#fff"/><path d="M97.7,46.3l-.5-.2a.5.5,0,0,1-.2-.4V39.4l.2-.5a.8.8,0,0,1,.5-.2h.5c.8,0,1.3-.7,1.6-2.1a28.3,28.3,0,0,0,.5-5.8V25.7l.2-.5a.8.8,0,0,1,.5-.2h12l.5.2a.8.8,0,0,1,.2.5v13h1.2l.5.2a.8.8,0,0,1,.2.5v6.3l-.2.5a.8.8,0,0,1-.5.2h-3.3l-.5-.2a.8.8,0,0,1-.2-.5V42.8h-9.2v2.9l-.2.5a.8.8,0,0,1-.5.2H97.7ZM109,38.8V29.2h-4.3v2.3a16,16,0,0,1-1.2,7.3Zm9.7,4-.5-.2a.8.8,0,0,1-.2-.5V25.8l.2-.5a.8.8,0,0,1,.5-.2H122l.5.2a.8.8,0,0,1,.2.5V36L130,25.7a1,1,0,0,1,.9-.5h3l.5.2a.8.8,0,0,1,.2.5V42.3l-.2.5a.8.8,0,0,1-.5.2h-3.3l-.5-.2a.8.8,0,0,1-.2-.5V32.5l-7.3,10a1,1,0,0,1-.9.5h-3ZM138.2,37l-.5-.2a.8.8,0,0,1-.2-.5V34l.2-.5a.8.8,0,0,1,.5-.2h8l.5.2a.8.8,0,0,1,.2.5v2.4l-.2.5a.8.8,0,0,1-.5.2h-8Zm19.2,6.1a9,9,0,0,1-5.7-1.7,6.8,6.8,0,0,1-2.2-5.1V31.8a6.8,6.8,0,0,1,2.2-5.1,8.5,8.5,0,0,1,5.7-1.8,10.2,10.2,0,0,1,4,.8,6.7,6.7,0,0,1,2.8,2.1,5.2,5.2,0,0,1,1.1,3.2.8.8,0,0,1-.2.4l-.4.1h-3.4a.8.8,0,0,1-.5-.1,2.2,2.2,0,0,1-.3-.5,2.7,2.7,0,0,0-1.1-1.8,3.1,3.1,0,0,0-2-.5c-2,0-3,1.1-3.1,3.3v4.2c.1,2.2,1.1,3.3,3.1,3.3a4,4,0,0,0,2-.5,3.3,3.3,0,0,0,1.1-1.8,1,1,0,0,1,.3-.5.8.8,0,0,1,.5-.2h3.4a.7.7,0,0,1,.6.6,5.2,5.2,0,0,1-1.1,3.2,6.7,6.7,0,0,1-2.8,2.1,10.2,10.2,0,0,1-4,.8Zm11.2-.3-.5-.2a.8.8,0,0,1-.2-.5V25.8l.2-.5a.8.8,0,0,1,.5-.2h3.3l.5.2a.8.8,0,0,1,.2.5V36l7.3-10.3a1,1,0,0,1,.9-.5h3l.5.2a.8.8,0,0,1,.2.5V42.3l-.2.5a.8.8,0,0,1-.5.2h-3.3l-.5-.2a.8.8,0,0,1-.2-.5V32.5l-7.3,10a1,1,0,0,1-.9.5h-3ZM188.1,37l-.5-.2a.8.8,0,0,1-.2-.5V34l.2-.5a.8.8,0,0,1,.5-.2h8l.5.2a.8.8,0,0,1,.2.5v2.4l-.2.5a.8.8,0,0,1-.5.2h-8ZM199,42.8a.8.8,0,0,1-.4-.2.5.5,0,0,1-.2-.4V42l6-16.2a2.2,2.2,0,0,1,.3-.5,1.4,1.4,0,0,1,.7-.2h3.8a1.4,1.4,0,0,1,.7.2.6.6,0,0,1,.3.5l6,16.2.1.2a.8.8,0,0,1-.2.4.5.5,0,0,1-.4.2h-3.1a.8.8,0,0,1-.8-.5l-1-2.6H204l-1,2.6c-.1.4-.4.5-.8.5Zm10.7-6.7-2.4-6.7-2.4,6.7Zm9.2,6.7-.5-.2a.8.8,0,0,1-.2-.5V25.8l.2-.5a.8.8,0,0,1,.5-.2h3.3l.5.2a.8.8,0,0,1,.2.5V36l7.3-10.3a1,1,0,0,1,.9-.5h3l.5.2a.8.8,0,0,1,.2.5V42.3l-.2.5a.8.8,0,0,1-.5.2h-3.3l-.5-.2a.8.8,0,0,1-.2-.5V32.5l-7.3,10a1,1,0,0,1-.9.5h-3Zm7.6-18.7a4.8,4.8,0,0,1-3.4-1,3.5,3.5,0,0,1-1.1-2.6.4.4,0,0,1,.1-.3.5.5,0,0,1,.4-.2h2a.5.5,0,0,1,.4.2.4.4,0,0,1,.1.3c0,.9.5,1.3,1.5,1.3s1.5-.4,1.5-1.3a.4.4,0,0,1,.1-.3.5.5,0,0,1,.4-.2h2a.5.5,0,0,1,.4.2.4.4,0,0,1,.1.3,3.3,3.3,0,0,1-1.1,2.6A4.6,4.6,0,0,1,226.5,24.1ZM98.7,72.8a.5.5,0,0,1-.4-.2.8.8,0,0,1-.2-.4v-12a.5.5,0,0,1,.2-.4.8.8,0,0,1,.4-.2h7.6a.7.7,0,0,1,.6.6v.9a.7.7,0,0,1-.6.6h-5.8V72.2a.7.7,0,0,1-.6.6Zm11,4.8a.7.7,0,0,1-.6-.6V60.2a.5.5,0,0,1,.2-.4.8.8,0,0,1,.4-.2h1.2a.7.7,0,0,1,.6.6v1.1a5.6,5.6,0,0,1,7.9-.5l.3.3a7.2,7.2,0,0,1,1.5,4.3v1.8a7.4,7.4,0,0,1-1.5,4.3,4.8,4.8,0,0,1-4,1.7,4.7,4.7,0,0,1-4.1-1.9V77a.7.7,0,0,1-.6.6Zm5.5-6.6a3,3,0,0,0,2.6-1.1,4.4,4.4,0,0,0,.9-2.9v-.7q0-4.8-3.6-4.8a3.2,3.2,0,0,0-2.7,1.2,4.4,4.4,0,0,0-.9,2.7v2a4,4,0,0,0,1,2.6A3.3,3.3,0,0,0,115.2,71Zm19.6-11.3a.8.8,0,0,1,.4.2.5.5,0,0,1,.2.4,1,1,0,0,1-.1.5l-5,11.2-.2.5-1.2,2.6a4.7,4.7,0,0,1-1.4,1.7,2.9,2.9,0,0,1-2,.7h-1a.7.7,0,0,1-.6-.6V76a.5.5,0,0,1,.2-.4.8.8,0,0,1,.4-.2h.7a2,2,0,0,0,.9-.2,1.4,1.4,0,0,0,.6-.7,7.1,7.1,0,0,0,.7-1.5l.4-1-5-11.4a1,1,0,0,1-.1-.4.7.7,0,0,1,.6-.6h1.2a.6.6,0,0,1,.6.4l3.9,9.3,4-9.3a.6.6,0,0,1,.6-.4h1.2Zm3.6,13.1a.5.5,0,0,1-.4-.2.8.8,0,0,1-.2-.4v-12a.5.5,0,0,1,.2-.4.8.8,0,0,1,.4-.2h10.1a.7.7,0,0,1,.6.6v12a.7.7,0,0,1-.6.6h-1.2a.5.5,0,0,1-.4-.2.8.8,0,0,1-.2-.4V61.7h-6.5V72.2a.7.7,0,0,1-.6.6Zm15.2,0a.5.5,0,0,1-.4-.2.8.8,0,0,1-.2-.4v-12a.5.5,0,0,1,.2-.4.8.8,0,0,1,.4-.2h10.1a.7.7,0,0,1,.6.6v12a.7.7,0,0,1-.6.6h-1.2a.5.5,0,0,1-.4-.2.8.8,0,0,1-.2-.4V61.7h-6.5V72.2a.7.7,0,0,1-.6.6Z" transform="translate(0)" fill="#fff"/></svg>