<svg xmlns="http://www.w3.org/2000/svg" width="60" height="46" viewBox="0 0 60 46"><path fill="#16334f" d="M0 14.6h14.9v4H0zm0 12.8h14.9v4H0zM5.4 21h10.8v4H5.4z"/><path fill="#16334f" d="M59 21.2l-11.8-6.5-5-13.4A2.2 2.2 0 0 0 40.4 0a2 2 0 0 0-1.8.7l-7 9L17.1 8a2 2 0 0 0-2 1 2.1 2.1 0 0 0 0 2.1L23 23l-7.6 11.9a1.8 1.8 0 0 0-.4 1.1 1.6 1.6 0 0 0 .4 1 2 2 0 0 0 1.9 1l14.6-1.7 7 9a1.6 1.6 0 0 0 1.7.7 2 2 0 0 0 1.6-1.3l5-13.4L59 24.7a2 2 0 0 0 1-1.7 2 2 0 0 0-1-1.8zm-14.4 7a1.9 1.9 0 0 0-.9 1L39.6 40 34.1 33a1.9 1.9 0 0 0-1.8-.7l-11.5 1.2 6-9.4a2.1 2.1 0 0 0 0-2.1l-6-9.4 11.5 1.2a2 2 0 0 0 1.8-.7L39.6 6l4.1 10.8a1.9 1.9 0 0 0 .9 1l9.3 5.2z"/></svg>