<svg xmlns="http://www.w3.org/2000/svg" viewBox="0 0 397.26 144" fill="#03a49b"><path d="M72.31,142a4.8,4.8,0,0,1-5-5V114.4H5.11a4.8,4.8,0,0,1-5-5v-19a11,11,0,0,1,2.2-6.2L60.51,5.4A9.09,9.09,0,0,1,67.91,2h29.2a4.91,4.91,0,0,1,3.6,1.4,4.88,4.88,0,0,1,1.4,3.6V84.6h17.6a4.79,4.79,0,0,1,3.8,1.6,4.64,4.64,0,0,1,1.4,3.4v19.8a4.8,4.8,0,0,1-5,5h-17.8V137a5.35,5.35,0,0,1-1.4,3.6,4.91,4.91,0,0,1-3.6,1.4Zm-4.2-56V38.8L34.51,86Zm130.72,58q-27.6-.19-41.8-14.6-14.19-14.59-15.4-38.2-.39-10.8-.4-19.2,0-8.6.4-19.8a61.08,61.08,0,0,1,7.2-26.6A46.93,46.93,0,0,1,168,7q12.6-7,30.8-7,27,.2,41.6,14.6t15.8,37.6q.4,11.2.4,19.8,0,8.4-.4,19.2-1.4,23.6-15.6,38.2Q226.43,143.8,198.83,144Zm0-29q9.81,0,14.6-6.4,5-6.6,5.4-18.4.4-5.81.4-18.6t-.4-18.2q-.39-11.4-5.2-18t-14.8-6.8q-9.79.2-14.8,6.8-4.8,6.6-5.2,18-.2,5.4-.2,18.2t.2,18.6Q179.83,115,198.83,115Zm145.94,27a4.8,4.8,0,0,1-5-5V114.4h-62.2a4.8,4.8,0,0,1-5-5v-19a11,11,0,0,1,2.2-6.2L333,5.4a9.09,9.09,0,0,1,7.4-3.4h29.2a4.8,4.8,0,0,1,5,5V84.6h17.6a4.78,4.78,0,0,1,3.8,1.6,4.64,4.64,0,0,1,1.4,3.4v19.8a4.8,4.8,0,0,1-5,5h-17.8V137a5.35,5.35,0,0,1-1.4,3.6,4.89,4.89,0,0,1-3.6,1.4Zm-4.2-56V38.8L307,86Z"/></svg>