<?xml version="1.0" standalone="no"?>
<!DOCTYPE svg PUBLIC "-//W3C//DTD SVG 20010904//EN"
 "http://www.w3.org/TR/2001/REC-SVG-20010904/DTD/svg10.dtd">
<svg version="1.0" xmlns="http://www.w3.org/2000/svg"
 width="350.000000pt" height="350.000000pt" viewBox="0 0 350.000000 350.000000"
 preserveAspectRatio="xMidYMid meet">
<metadata>
Created by potrace 1.14, written by Peter Selinger 2001-2017
</metadata>
<g transform="translate(0.000000,350.000000) scale(0.100000,-0.100000)"
fill="#000000" stroke="none">
<path d="M1425 3318 c-345 -201 -699 -406 -730 -422 -11 -6 -27 -16 -35 -22
-8 -7 -39 -25 -68 -40 -29 -16 -61 -33 -70 -39 -9 -5 -74 -43 -144 -83 -70
-40 -131 -79 -135 -85 -4 -7 -8 -401 -8 -876 0 -757 2 -867 15 -881 12 -14
449 -271 652 -384 20 -12 90 -52 155 -90 65 -37 137 -79 160 -92 23 -13 150
-87 283 -164 133 -77 248 -140 256 -140 8 0 44 18 80 40 36 22 68 40 70 40 2
0 25 13 51 28 79 47 213 125 763 442 289 166 532 309 540 317 13 12 15 123 16
876 0 474 -3 869 -8 878 -6 14 -96 73 -133 88 -5 2 -26 14 -45 26 -19 12 -55
33 -80 47 -25 14 -85 49 -135 78 -49 29 -108 63 -130 75 -22 13 -123 71 -225
130 -102 59 -205 119 -230 133 -25 14 -73 43 -108 64 -34 21 -64 38 -66 38 -3
0 -51 27 -108 61 -200 118 -239 139 -258 138 -8 0 -154 -82 -325 -181z"/>
</g>
</svg>
