<svg xmlns="http://www.w3.org/2000/svg" viewBox="0 0 210.1 759.65"><title>zigzag-vert-long</title><polygon points="38 228.5 38.6 227.9 113.3 153.2 95.5 153.2 20.2 228.5 95.5 303.8 113.3 303.8 38 228.5" fill="none"/><polygon points="58.8 229.1 134.1 304.4 58.77 379.82 134.1 455.25 58.2 531.15 133.5 606.45 151.3 606.45 76 531.15 151.9 455.25 76.6 379.85 76.62 379.82 76.6 379.8 151.9 304.4 76.6 229.1 58.8 229.1" fill="none"/><polygon points="18.3 227.9 93 153.2 77.8 153.2 2.5 228.5 77.8 303.8 93 303.8 17.7 228.5 18.3 227.9" fill="none"/><polygon points="114.6 531.85 96.8 531.85 171.5 606.55 172.1 607.15 96.8 682.45 114.6 682.45 189.9 607.15 114.6 531.85" fill="none"/><polygon points="117.1 531.85 191.8 606.55 192.4 607.15 117.1 682.45 132.3 682.45 207.6 607.15 132.3 531.85 117.1 531.85" fill="none"/><path d="M133.5,228.5l76-76-76-75.9L208.9,1.2,207.6,0,131.1,76.6,207,152.5l-75.9,76L207,304.4l-75.3,75.4,0,0,0,0,75.3,75.4-75.3,75.3H116.5l75.3-75.3-75.42-75.42L191.8,304.4l-76-75.9,76-76-76-75.9L191.1,1.2,189.9,0,113.3,76.6l76,75.9-76,76,76,75.9-75.4,75.4.67.62,74.73,74.83L114,530.55H96.2l75.3-75.3L96.13,379.77,171.5,304.4,95.6,228.5l75.9-76L95.6,76.6,170.9,1.2,169.6,0,93.1,76.6,169,152.5,93.7,227.8H78.5l75.3-75.3-76-75.9L153.2,1.2,151.9,0,75.4,76.6l75.9,75.9L76,227.8H58.2l75.3-75.3L57.6,76.6,132.9,1.2,131.7,0,55.1,76.6l76,75.9L55.7,227.8l-.6.7,76,75.9L55.7,379.8l0,0,0,0,75.4,75.4-76,75.9,75.3,75.3H115.2l-75.3-75.3,75.9-75.9L40.43,379.77,115.8,304.4l-76-76,76-76-76-76L115.2,1.2,113.9,0,37.4,76.6l75.3,75.3H94.9L19.6,76.6,94.9,1.2,93.7,0,17.1,76.6l75.3,75.3H77.2L1.9,76.6,77.2,1.2,76,0-.6,76.6l76,76L0,227.9l-.6.6,76,76L0,379.8l0,0,0,0,75.4,75.4-76,75.9,76,76L-.6,683,76,759.65l1.2-1.2L1.9,683l75.9-75.9-75.9-76,75.9-75.9L2.52,379.87,77.3,305H92.4L17.7,379.8l.67.62L93.1,455.25l-76,75.9,76,76L17.1,683l76.6,76.6,1.3-1.2L19.6,683l76-75.9-76-76,76-75.9L20.18,379.82,95,305h17.7L38,379.8l0,0,0,0,75.3,75.4-75.9,75.9,75.9,76L37.4,683l76.6,76.6,1.2-1.2L39.9,683h0l75.3-75.3h15.2L55.1,683l76.6,76.6,1.2-1.2L57.6,683l75.3-75.3h17.8L75.4,683l76.5,76.6,1.3-1.2L77.8,683l76-75.9-.6-.7-75.4-75.3,76-75.9L78.38,379.82,153.8,304.4,78.5,229.1H93.7L169,304.4h0L93.7,379.8l0,0,0,0L169.1,455l-76,76,76,76-76,76,76.6,76.6,1.2-1.2-74.7-74.8h17.7l76,76,1.3-1.2-74.7-74.8h15.1l75.9,76,1.4-1.2-75.4-75.3,76-76-.6-.6-75.4-75.3,76-76-75.42-75.42L209.5,304.4ZM77.2,303.8,1.9,228.5l75.3-75.3H92.4L17.7,227.9l-.6.6,75.3,75.3Zm17.7,0L19.6,228.5l75.3-75.3h17.8L38,227.9l-.6.6,75.3,75.3Zm56.4.6L76,379.8l0,0,0,0,75.3,75.4-75.9,75.9,75.3,75.3H132.9l-75.3-75.3,75.9-75.9L58.17,379.82,133.5,304.4,58.2,229.1H76Zm-37.3,378H96.2l75.3-75.3-.6-.6-74.7-74.7H114l75.3,75.3Zm93-75.3-75.3,75.3H116.5l75.3-75.3-.6-.6-74.7-74.7h15.2Z" transform="translate(0.6)" fill="#03a49b"/></svg>