<svg xmlns="http://www.w3.org/2000/svg" width="46" height="46" viewBox="0 0 46 46"><path fill="#16334f" d="M46 20.7L44.8 2.9A2 2 0 0 0 43 1.2L25.3 0a1.7 1.7 0 0 0-1.4.5L.5 24a1.8 1.8 0 0 0-.5 1.4 2.1 2.1 0 0 0 .5 1.3l19 18.9a2 2 0 0 0 2.7 0L45.5 22a1.7 1.7 0 0 0 .5-1.4zM20.8 41.5L4.5 25.2 25.9 3.8l15.3 1 1 15.2z"/><path fill="#16334f" d="M32.4 8a5.7 5.7 0 0 0-3.9 1.6 5.4 5.4 0 0 0-1.5 3.9 5.7 5.7 0 0 0 1.6 3.9 5.4 5.4 0 0 0 3.8 1.6 5.7 5.7 0 0 0 4-1.6 5.4 5.4 0 0 0 1.5-3.9 5.7 5.7 0 0 0-1.6-3.9A5.7 5.7 0 0 0 32.4 8zm1.3 6.7a1.8 1.8 0 0 1-3-1.2 1.5 1.5 0 0 1 .5-1.2 1.8 1.8 0 0 1 1.2-.5 1.5 1.5 0 0 1 1.2.5 1.8 1.8 0 0 1 .5 1.2 1.4 1.4 0 0 1-.4 1.3z"/><circle cx="16.3" cy="21.4" r="2.7" fill="#16334f"/><circle cx="24.3" cy="28.7" r="2.7" fill="#16334f"/><path fill="#16334f" d="M14.4 28.2l7.9-8 2.6 2.7-7.9 8z"/></svg>