<svg xmlns="http://www.w3.org/2000/svg" viewBox="0 0 210.1 381"><path fill="#03a49b" d="M169.6 304.4l-75.3 75.4 1.2 1.2 76.6-76.6-75.9-75.9 75.9-76-75.9-75.9 75.3-75.4-1.3-1.2-76.5 76.6 75.9 75.9-75.3 75.3H79.1l75.3-75.3-76-75.9 75.4-75.4-1.3-1.2L76 76.6l75.9 75.9-75.3 75.3H58.8l75.3-75.3-75.9-75.9 75.3-75.4-1.2-1.2-76.6 76.6 76 75.9-75.4 75.3-.6.7 76 75.9-75.4 75.4 1.3 1.2 76.5-76.6-75.3-75.3h17.8l75.3 75.3-75.3 75.4 1.2 1.2 76.6-76.6-75.3-75.3h15.2l75.3 75.3z"/><path fill="#03a49b" d="M207.6 152.5l-75.9 76 75.9 75.9-75.3 75.4 1.2 1.2 76.6-76.6-76-75.9 76-76-76-75.9 75.4-75.4-1.3-1.2-76.5 76.6 75.9 75.9zM38.6 379.8l1.2 1.2 76.6-76.6-76-76 76-76-76-76 75.4-75.2-1.3-1.2L38 76.6l75.3 75.3H95.5L20.2 76.6 95.5 1.2 94.3 0 17.7 76.6 93 151.9H77.8L2.5 76.6 77.8 1.2 76.6 0 0 76.6l76 76L.6 227.9l-.6.6 76 76L.6 379.8 2 381l75.9-76H93l-74.7 74.8 1.3 1.2 76-76h17.7zM38 228.5l75.3 75.3H95.5l-75.3-75.3 75.3-75.3h17.8l-74.7 74.7zm39.8-75.3H93l-74.7 74.7-.6.6L93 303.8H77.8L2.5 228.5z"/><path fill="#03a49b" d="M116.4 228.5l76-76-76-75.9 75.3-75.4-1.2-1.2-76.6 76.6 76 75.9-76 76 76 75.9-75.4 75.4 1.3 1.2 76.6-76.6-76-75.9z"/></svg>