<svg xmlns="http://www.w3.org/2000/svg" viewBox="0 0 381 210.1"><path fill="#03a49b" d="M304.4 40.5l75.4 75.3 1.2-1.3L304.4 38l-75.9 75.9-76-75.9-75.9 75.9L1.2 38.6 0 39.8l76.6 76.6 75.9-75.9 75.3 75.3V131l-75.3-75.3-75.9 76L1.2 56.3 0 57.6l76.6 76.5 75.9-75.9 75.3 75.3v17.8L152.5 76l-75.9 75.9L1.2 76.6 0 77.8l76.6 76.6 75.9-76 75.3 75.4.7.6 75.9-76 75.4 75.4 1.2-1.3L304.4 76l-75.3 75.3v-17.8l75.3-75.3 75.4 75.3 1.2-1.2-76.6-76.6-75.3 75.3v-15.2l75.3-75.3z"/><path fill="#03a49b" d="M152.5 2.5l76 75.9 75.9-75.9 75.4 75.3 1.2-1.2L304.4 0l-75.9 76-76-76-75.9 76L1.2.6 0 1.9l76.6 76.5 75.9-75.9zM379.8 171.5l1.2-1.3-76.6-76.5-76 76-76-76-76 76L1.2 94.3 0 95.5l76.6 76.6L152 96.8v17.8l-75.3 75.3-75.4-75.3-1.2 1.2 76.6 76.6L152 117v15.2l-75.3 75.4-75.4-75.4-1.2 1.3 76.6 76.6 76-76 75.4 75.3.6.6 76-76 75.3 75.4 1.2-1.3-76-75.9V117l74.7 74.7 1.2-1.2-76-76V96.9zm-151.3.6l75.3-75.3v17.8l-75.3 75.3-75.3-75.3V96.8l74.7 74.7zm-75.3-39.9V117l74.7 74.7.6.7 75.3-75.4v15.2l-75.3 75.4z"/><path fill="#03a49b" d="M228.5 93.7l-76-76-75.9 76L1.2 18.3 0 19.6l76.6 76.6 75.9-76 76 76 75.9-76 75.4 75.3 1.2-1.2-76.6-76.6-75.9 76z"/></svg>