<svg xmlns="http://www.w3.org/2000/svg" xmlns:xlink="http://www.w3.org/1999/xlink" style="display:none"><symbol id="basket"><path d="M14 13.53l.14-.07.2-.07v-6h-1.76v4.26h-7V0H0v1.77h3.88v11.61l.2.07.14.07a1.33 1.33 0 0 1 .3.23 1.48 1.48 0 0 1 0 2.15 1.39 1.39 0 0 1-.64.38 1.58 1.58 0 0 1-.45.07h-.16a1.51 1.51 0 0 1-.95-.44 1.5 1.5 0 0 1 0-2.15 1.64 1.64 0 0 1 .68-.38v-1.67a3.11 3.11 0 0 0-1.85.89 3.11 3.11 0 0 0 0 4.47 3.18 3.18 0 0 0 2.12.93h.6a3.21 3.21 0 0 0 1.84-.91 3 3 0 0 0 1-2.24 3 3 0 0 0-.32-1.39h5.5a3 3 0 0 0-.32 1.39 3 3 0 0 0 1 2.24 3.15 3.15 0 0 0 2.29.92 3.2 3.2 0 0 0 2.3-.92 3.14 3.14 0 0 0 0-4.47 3.11 3.11 0 0 0-1.85-.89v1.67a1.63 1.63 0 0 1 .65.38 1.51 1.51 0 0 1 0 2.15 1.5 1.5 0 0 1-1.1.44 1.53 1.53 0 0 1-1.1-.44 1.5 1.5 0 0 1 0-2.15 1.57 1.57 0 0 1 .24-.25z"/></symbol><symbol id="bottom-arrow-s"><path d="M14.44.29a1 1 0 0 0-1.44 0L7.36 5.95 1.71.29A1 1 0 0 0 .29 1.71l6.37 6.36a1 1 0 0 0 1.41 0l6.36-6.36a1 1 0 0 0 .01-1.42z"/></symbol><symbol id="catalog-view" viewBox="0 0 18 18"><path d="M0 0h8v8H0zm0 10h8v8H0zM10 0h8v8h-8zm0 10h8v8h-8z"/></symbol><symbol id="close"><path d="M19 20a1 1 0 0 1-.71-.29L10 11.41l-8.29 8.3a1 1 0 0 1-1.42-1.42L8.59 10 .29 1.71A1 1 0 0 1 1.71.29L10 8.59l8.29-8.3A1 1 0 0 1 19.7 1.7L11.41 10l8.29 8.29A1 1 0 0 1 19 20z"/></symbol><symbol id="dci-logo"><path fill="#fff" d="M42.5 98a.9.9 0 0 1-.5-.1L.5 73.9A1 1 0 0 1 0 73V24.7a.3.3 0 0 1 .1-.2l.2-.2.2-.2L42 .1a.3.3 0 0 0 .2-.1h.6a.3.3 0 0 1 .2.1l41.5 24 .2.2.2.2a.3.3 0 0 0 .1.2v48.6a.3.3 0 0 1-.1.2l-.2.2-.2.2-41.5 24a.9.9 0 0 1-.5.1z"/><path fill="#16334f" d="M85 24.7a.3.3 0 0 0-.1-.2.2.2 0 0 0-.2-.2l-.2-.2L43 .1a.3.3 0 0 1-.2-.1h-.6a.3.3 0 0 0-.2.1L.5 24.1l-.2.2-.2.2a.3.3 0 0 1-.1.2V73a1 1 0 0 0 .5.9l41.5 24a.8.8 0 0 0 .5.1.9.9 0 0 0 .5-.1l41.5-24 .2-.2.2-.2a.3.3 0 0 1 .1-.2V24.7zM39.5 85.5L9.5 68V33.5l30 16z"/><path fill="#fff" d="M9.5 68l30 17.5v-36l-30-16z"/><path fill="#16334f" d="M27.7 64.1l-.7-1.9a3.5 3.5 0 0 1-1.2.9A3 3 0 0 1 23 63a3.5 3.5 0 0 1-1.1-1 3.9 3.9 0 0 1-.7-1.6 12 12 0 0 1-.3-2 6.7 6.7 0 0 1 .3-2.1 7.7 7.7 0 0 1 .7-1.6 3.5 3.5 0 0 1 1.1-1 3.2 3.2 0 0 1 1.4-.3 2.5 2.5 0 0 1 1.3.3 3.6 3.6 0 0 1 1 .7l.8-1.9a3.3 3.3 0 0 0-1.3-1 3.4 3.4 0 0 0-1.8-.4 4.4 4.4 0 0 0-2.3.6 5.2 5.2 0 0 0-1.7 1.6 8 8 0 0 0-1 2.3 13.5 13.5 0 0 0-.4 2.9 9.5 9.5 0 0 0 .4 3 7 7 0 0 0 1.1 2.3 4.9 4.9 0 0 0 1.7 1.5 5.5 5.5 0 0 0 2.2.5 3.4 3.4 0 0 0 1-.1l.9-.3a2.2 2.2 0 0 0 .8-.5 2.1 2.1 0 0 0 .6-.8z"/><path fill="#03a49b" d="M79.2 69.1l3.8 2.2V25.6L42.5 2.2 2 25.6v45.7l3.8-2.2V28.3a1 1 0 0 1 .5-.9L42 6.8a1 1 0 0 1 1 0l35.7 20.7a1 1 0 0 1 .5.9z"/><path fill="#fff" d="M37 21.1v10.6h4.3a15 15 0 0 0 3.9-.4 9 9 0 0 0 2.8-1.2 5.5 5.5 0 0 0 1.7-1.7 4.2 4.2 0 0 0 .6-2.1 4.5 4.5 0 0 0-.5-2 4.3 4.3 0 0 0-1.6-1.7 6.7 6.7 0 0 0-2.7-1.1 16 16 0 0 0-4-.4zm4.4 1.6a9.5 9.5 0 0 1 2.5.3 8.4 8.4 0 0 1 1.9.7 4.3 4.3 0 0 1 1.2 1.1 2.3 2.3 0 0 1 .4 1.4 2.4 2.4 0 0 1-.4 1.5 3.4 3.4 0 0 1-1.2 1.2 4.7 4.7 0 0 1-1.9.7 9.5 9.5 0 0 1-2.5.3h-1.7v-7.1h.9a2.2 2.2 0 0 1 .8-.1z"/><path fill="#fff" d="M42.5 98a.9.9 0 0 1-.5-.1L.5 73.9A1 1 0 0 1 0 73V24.7a.3.3 0 0 1 .1-.2l.2-.2.2-.2L42 .1a.3.3 0 0 0 .2-.1h.6a.3.3 0 0 1 .2.1l41.5 24 .2.2.2.2a.3.3 0 0 0 .1.2v48.6a.3.3 0 0 1-.1.2l-.2.2-.2.2-41.5 24a.9.9 0 0 1-.5.1zM2 72.4l40.5 23.4L82 73l-3.8-2.2L43 91.2a.3.3 0 0 0-.2.1h-.4a.3.3 0 0 1-.2-.1L6.3 70.5a1 1 0 0 1-.5-.8V28.3a1 1 0 0 1 .5-.9l.5-.3 17.4-10L42 6.8a1 1 0 0 1 1 0l35.7 20.7a1 1 0 0 1 .5.9v40.8l3.8 2.2V25.6l-1-.6L43.5 2.7l-1-.6-1 .6L3 25l-1 .6zm41.5-24.1v40.3l33.7-19.5V30zM7.8 69.1l33.7 19.5V48.3L7.8 30zm1-40.8l33.7 18.2 33.7-18.2L42.5 8.8z"/><path fill="#fff" d="M59.3 50.3v17.2l2.8-1.3V49z"/><path fill="#16334f" d="M97.7 46.3l-.5-.2a.5.5 0 0 1-.2-.4v-6.3l.2-.5a.8.8 0 0 1 .5-.2h.5c.8 0 1.3-.7 1.6-2.1a28.3 28.3 0 0 0 .5-5.8v-5.1l.2-.5a.8.8 0 0 1 .5-.2h12l.5.2a.8.8 0 0 1 .2.5v13h1.2l.5.2a.8.8 0 0 1 .2.5v6.3l-.2.5a.8.8 0 0 1-.5.2h-3.3l-.5-.2a.8.8 0 0 1-.2-.5v-2.9h-9.2v2.9l-.2.5a.8.8 0 0 1-.5.2h-3.3zm11.3-7.5v-9.6h-4.3v2.3a16 16 0 0 1-1.2 7.3zm9.7 4l-.5-.2a.8.8 0 0 1-.2-.5V25.8l.2-.5a.8.8 0 0 1 .5-.2h3.3l.5.2a.8.8 0 0 1 .2.5V36l7.3-10.3a1 1 0 0 1 .9-.5h3l.5.2a.8.8 0 0 1 .2.5v16.4l-.2.5a.8.8 0 0 1-.5.2h-3.3l-.5-.2a.8.8 0 0 1-.2-.5v-9.8l-7.3 10a1 1 0 0 1-.9.5h-3zm19.5-5.8l-.5-.2a.8.8 0 0 1-.2-.5V34l.2-.5a.8.8 0 0 1 .5-.2h8l.5.2a.8.8 0 0 1 .2.5v2.4l-.2.5a.8.8 0 0 1-.5.2h-8zm19.2 6.1a9 9 0 0 1-5.7-1.7 6.8 6.8 0 0 1-2.2-5.1v-4.5a6.8 6.8 0 0 1 2.2-5.1 8.5 8.5 0 0 1 5.7-1.8 10.2 10.2 0 0 1 4 .8 6.7 6.7 0 0 1 2.8 2.1 5.2 5.2 0 0 1 1.1 3.2.8.8 0 0 1-.2.4l-.4.1h-3.4a.8.8 0 0 1-.5-.1 2.2 2.2 0 0 1-.3-.5 2.7 2.7 0 0 0-1.1-1.8 3.1 3.1 0 0 0-2-.5c-2 0-3 1.1-3.1 3.3v4.2c.1 2.2 1.1 3.3 3.1 3.3a4 4 0 0 0 2-.5 3.3 3.3 0 0 0 1.1-1.8 1 1 0 0 1 .3-.5.8.8 0 0 1 .5-.2h3.4a.7.7 0 0 1 .6.6 5.2 5.2 0 0 1-1.1 3.2 6.7 6.7 0 0 1-2.8 2.1 10.2 10.2 0 0 1-4 .8zm11.2-.3l-.5-.2a.8.8 0 0 1-.2-.5V25.8l.2-.5a.8.8 0 0 1 .5-.2h3.3l.5.2a.8.8 0 0 1 .2.5V36l7.3-10.3a1 1 0 0 1 .9-.5h3l.5.2a.8.8 0 0 1 .2.5v16.4l-.2.5a.8.8 0 0 1-.5.2h-3.3l-.5-.2a.8.8 0 0 1-.2-.5v-9.8l-7.3 10a1 1 0 0 1-.9.5h-3zm19.5-5.8l-.5-.2a.8.8 0 0 1-.2-.5V34l.2-.5a.8.8 0 0 1 .5-.2h8l.5.2a.8.8 0 0 1 .2.5v2.4l-.2.5a.8.8 0 0 1-.5.2h-8zm10.9 5.8a.8.8 0 0 1-.4-.2.5.5 0 0 1-.2-.4V42l6-16.2a2.2 2.2 0 0 1 .3-.5 1.4 1.4 0 0 1 .7-.2h3.8a1.4 1.4 0 0 1 .7.2.6.6 0 0 1 .3.5l6 16.2.1.2a.8.8 0 0 1-.2.4.5.5 0 0 1-.4.2h-3.1a.8.8 0 0 1-.8-.5l-1-2.6H204l-1 2.6c-.1.4-.4.5-.8.5zm10.7-6.7l-2.4-6.7-2.4 6.7zm9.2 6.7l-.5-.2a.8.8 0 0 1-.2-.5V25.8l.2-.5a.8.8 0 0 1 .5-.2h3.3l.5.2a.8.8 0 0 1 .2.5V36l7.3-10.3a1 1 0 0 1 .9-.5h3l.5.2a.8.8 0 0 1 .2.5v16.4l-.2.5a.8.8 0 0 1-.5.2h-3.3l-.5-.2a.8.8 0 0 1-.2-.5v-9.8l-7.3 10a1 1 0 0 1-.9.5h-3zm7.6-18.7a4.8 4.8 0 0 1-3.4-1 3.5 3.5 0 0 1-1.1-2.6.4.4 0 0 1 .1-.3.5.5 0 0 1 .4-.2h2a.5.5 0 0 1 .4.2.4.4 0 0 1 .1.3c0 .9.5 1.3 1.5 1.3s1.5-.4 1.5-1.3a.4.4 0 0 1 .1-.3.5.5 0 0 1 .4-.2h2a.5.5 0 0 1 .4.2.4.4 0 0 1 .1.3 3.3 3.3 0 0 1-1.1 2.6 4.6 4.6 0 0 1-3.4 1zM98.7 72.8a.5.5 0 0 1-.4-.2.8.8 0 0 1-.2-.4v-12a.5.5 0 0 1 .2-.4.8.8 0 0 1 .4-.2h7.6a.7.7 0 0 1 .6.6v.9a.7.7 0 0 1-.6.6h-5.8v10.5a.7.7 0 0 1-.6.6zm11 4.8a.7.7 0 0 1-.6-.6V60.2a.5.5 0 0 1 .2-.4.8.8 0 0 1 .4-.2h1.2a.7.7 0 0 1 .6.6v1.1a5.6 5.6 0 0 1 7.9-.5l.3.3a7.2 7.2 0 0 1 1.5 4.3v1.8a7.4 7.4 0 0 1-1.5 4.3 4.8 4.8 0 0 1-4 1.7 4.7 4.7 0 0 1-4.1-1.9V77a.7.7 0 0 1-.6.6zm5.5-6.6a3 3 0 0 0 2.6-1.1 4.4 4.4 0 0 0 .9-2.9v-.7q0-4.8-3.6-4.8a3.2 3.2 0 0 0-2.7 1.2 4.4 4.4 0 0 0-.9 2.7v2a4 4 0 0 0 1 2.6 3.3 3.3 0 0 0 2.7 1zm19.6-11.3a.8.8 0 0 1 .4.2.5.5 0 0 1 .2.4 1 1 0 0 1-.1.5l-5 11.2-.2.5-1.2 2.6a4.7 4.7 0 0 1-1.4 1.7 2.9 2.9 0 0 1-2 .7h-1a.7.7 0 0 1-.6-.6V76a.5.5 0 0 1 .2-.4.8.8 0 0 1 .4-.2h.7a2 2 0 0 0 .9-.2 1.4 1.4 0 0 0 .6-.7 7.1 7.1 0 0 0 .7-1.5l.4-1-5-11.4a1 1 0 0 1-.1-.4.7.7 0 0 1 .6-.6h1.2a.6.6 0 0 1 .6.4l3.9 9.3 4-9.3a.6.6 0 0 1 .6-.4h1.2zm3.6 13.1a.5.5 0 0 1-.4-.2.8.8 0 0 1-.2-.4v-12a.5.5 0 0 1 .2-.4.8.8 0 0 1 .4-.2h10.1a.7.7 0 0 1 .6.6v12a.7.7 0 0 1-.6.6h-1.2a.5.5 0 0 1-.4-.2.8.8 0 0 1-.2-.4V61.7h-6.5v10.5a.7.7 0 0 1-.6.6zm15.2 0a.5.5 0 0 1-.4-.2.8.8 0 0 1-.2-.4v-12a.5.5 0 0 1 .2-.4.8.8 0 0 1 .4-.2h10.1a.7.7 0 0 1 .6.6v12a.7.7 0 0 1-.6.6h-1.2a.5.5 0 0 1-.4-.2.8.8 0 0 1-.2-.4V61.7h-6.5v10.5a.7.7 0 0 1-.6.6z"/></symbol><symbol id="delivery-icon"><path fill="#16334f" d="M11.77 10.25h25.54v4.54H11.77zm-4.98 7.26h23.55v4.54H6.79zM0 24.77h18.57v4.54H0z"/><path fill="#16334f" d="M73.73 25.77l-7.34-15.34a2.21 2.21 0 0 0-2.08-1.27H57.7V2.27A2.24 2.24 0 0 0 55.43 0H22.82v4.54h30.44v30.3a7.45 7.45 0 0 0-1.45 2.27H29.26a6.62 6.62 0 1 0 0 4.54h22.55a6.66 6.66 0 0 0 12.5 0h7.43A2.24 2.24 0 0 0 74 39.38V26.77a2.07 2.07 0 0 0-.27-1zM23 41.55a2.09 2.09 0 1 1 2.08-2.09A2.05 2.05 0 0 1 23 41.55zm35.05 0a2.09 2.09 0 1 1 2.08-2.09 2.05 2.05 0 0 1-2.07 2.09zm11.42-4.35h-5.16a6.6 6.6 0 0 0-6.25-4.36h-.27V13.7h5.16l6.52 13.61z"/></symbol><symbol id="delivery-time-icon"><path fill="#16334f" d="M0 14.61h14.86v3.99H0zm0 12.76h14.86v3.99H0zm5.37-6.38H16.2v3.99H5.37z"/><path fill="#16334f" d="M59 21.23l-11.81-6.54-5.06-13.4A2.18 2.18 0 0 0 40.55 0a1.93 1.93 0 0 0-1.82.72l-7 8.93L17.07 8a2 2 0 0 0-1.9 1 2.1 2.1 0 0 0 0 2.15L22.92 23l-7.66 11.87a1.84 1.84 0 0 0-.32 1.13 1.61 1.61 0 0 0 .32 1 2 2 0 0 0 1.9 1l14.62-1.67 7 8.93a1.6 1.6 0 0 0 1.74.72 2 2 0 0 0 1.58-1.28l5.06-13.4L59 24.74A2 2 0 0 0 60 23a2.08 2.08 0 0 0-1-1.77zm-14.42 6.94a1.88 1.88 0 0 0-.87 1L39.6 40.06 34.07 33a1.86 1.86 0 0 0-1.74-.72l-11.54 1.24 6.09-9.41a2.1 2.1 0 0 0 0-2.15l-6.09-9.41 11.54 1.28a2 2 0 0 0 1.74-.72L39.6 6l4.11 10.85a1.88 1.88 0 0 0 .87 1L53.91 23z"/></symbol><symbol id="doc-ok"><path fill="#1d1c1b" d="M12 0l6 6v10a2 2 0 0 1-2 2H2a2 2 0 0 1-2-2V2a2 2 0 0 1 2-2zm4 16V7h-5V2H2v14zm-7.8-1.54l-2.75-3 1.16-1.16 1.59 1.58 3.58-3.58 1.17 1.41z"/></symbol><symbol id="fb-icon"><path fill="#3548ac" d="M0 0h24v24H0z"/><path fill="#fff" d="M16.56 24v-9.29h3.12l.47-3.62h-3.59V8.77c0-1 .29-1.76 1.8-1.76h1.92V3.77a25.67 25.67 0 0 0-2.79-.14c-2.77 0-4.66 1.69-4.66 4.79v2.67H9.69v3.62h3.13V24z"/></symbol><symbol id="footer-fb-icon" viewBox="0 0 38 38"><path d="M0 0v38h38V0zm36 36h-9.78V23.28h4.94l.74-5.73h-5.68v-3.66c0-1.66.46-2.79 2.84-2.79h3V6a40.64 40.64 0 0 0-4.43-.23c-4.38 0-7.38 2.67-7.38 7.58v4.23h-5v5.73h5V36H2V2h34z"/></symbol><symbol id="heart"><path d="M9 16l-1.3-1.15C3.06 10.78 0 8.08 0 4.8A4.82 4.82 0 0 1 4.95 0 5.49 5.49 0 0 1 9 1.81 5.49 5.49 0 0 1 13.05 0 4.82 4.82 0 0 1 18 4.8c0 3.29-3.06 6-7.69 10.05z"/></symbol><symbol id="left-arrow-s"><path d="M2.41 7.36l5.66-5.65A1 1 0 0 0 6.66.29L.29 6.66a1 1 0 0 0 0 1.41l6.36 6.36A1 1 0 0 0 8.07 13z"/></symbol><symbol id="left-arrow"><path d="M13 6.36H3.41l4.66-4.65A1 1 0 1 0 6.66.29L.29 6.66a1 1 0 0 0 0 1.41l6.36 6.36A1 1 0 0 0 8.07 13L3.41 8.36H13z"/></symbol><symbol id="lens"><path d="M6.69 0a6.69 6.69 0 0 1 5.08 11l.28.28h.81L18 16.46 16.46 18l-5.14-5.14V12l-.32-.23A6.69 6.69 0 1 1 6.69 0zm0 2.06a4.63 4.63 0 1 0 4.63 4.63 4.61 4.61 0 0 0-4.63-4.63z"/></symbol><symbol id="list-view"><path d="M7 1h11v2H7zm0 7h11v2H7zm0 7h11v2H7zM0 7h4v4H0zm0-7h4v4H0zm0 14h4v4H0z"/></symbol><symbol id="minus"><path d="M.41 2a.44.44 0 0 1-.3-.1.32.32 0 0 1-.11-.23V.35A.32.32 0 0 1 .12.1.44.44 0 0 1 .41 0h5.16a.44.44 0 0 1 .3.1.3.3 0 0 1 .13.25v1.32a.3.3 0 0 1-.13.25.44.44 0 0 1-.3.1z"/></symbol><symbol id="phone"><path d="M3.62 7.79a15.1 15.1 0 0 0 6.59 6.59l2.2-2.2a1 1 0 0 1 1-.25 11.36 11.36 0 0 0 3.59.57 1 1 0 0 1 1 1V17a1 1 0 0 1-1 1A17 17 0 0 1 0 1a1 1 0 0 1 1-1h3.5a1 1 0 0 1 1 1 11.36 11.36 0 0 0 .57 3.57 1 1 0 0 1-.25 1z"/></symbol><symbol id="plus"><path d="M3.92 9.14a.41.41 0 0 1-.43-.43V5.58h-3a.48.48 0 0 1-.33-.12.42.42 0 0 1-.16-.31V3.9a.42.42 0 0 1 .12-.31.44.44 0 0 1 .33-.14h3v-3a.42.42 0 0 1 .16-.33.46.46 0 0 1 .31-.12h1.4a.42.42 0 0 1 .31.12.42.42 0 0 1 .12.31v3h3a.39.39 0 0 1 .31.14.42.42 0 0 1 .12.31v1.27a.41.41 0 0 1-.43.43h-3v3.13a.46.46 0 0 1-.12.29.42.42 0 0 1-.31.12z"/></symbol><symbol id="price-icon"><path fill="#16334f" d="M46 20.69L44.79 2.94a1.92 1.92 0 0 0-1.72-1.72L25.31 0a1.71 1.71 0 0 0-1.42.52L.52 23.91A1.8 1.8 0 0 0 0 25.25a2.15 2.15 0 0 0 .52 1.35l18.95 18.88a2 2 0 0 0 2.7 0l23.29-23.37a1.71 1.71 0 0 0 .54-1.42zM20.82 41.51L4.49 25.18 25.91 3.76l15.28 1 1 15.28z"/><path fill="#16334f" d="M32.43 8a5.69 5.69 0 0 0-3.89 1.6A5.37 5.37 0 0 0 27 13.5a5.69 5.69 0 0 0 1.57 3.89A5.37 5.37 0 0 0 32.43 19a5.69 5.69 0 0 0 3.89-1.57 5.37 5.37 0 0 0 1.58-3.93 5.69 5.69 0 0 0-1.58-3.9A5.69 5.69 0 0 0 32.43 8zm1.27 6.74a1.76 1.76 0 0 1-3-1.2 1.49 1.49 0 0 1 .52-1.2 1.77 1.77 0 0 1 1.2-.52 1.49 1.49 0 0 1 1.2.52 1.77 1.77 0 0 1 .52 1.2 1.43 1.43 0 0 1-.44 1.23z"/><circle cx="16.25" cy="21.36" r="2.7" fill="#16334f"/><circle cx="24.34" cy="28.7" r="2.7" fill="#16334f"/><path fill="#16334f" d="M14.4 28.19l7.9-7.9 2.64 2.65-7.9 7.9z"/></symbol><symbol id="right-arrow-s"><path d="M8.07 6.66L1.71.29A1 1 0 0 0 .29 1.71l5.66 5.65L.29 13a1 1 0 0 0 1.41 1.41l6.37-6.34a1 1 0 0 0 0-1.41z"/></symbol><symbol id="right-arrow"><path d="M12.71 6.66L6.34.29a1 1 0 0 0-1.41 1.42l4.66 4.65H0v2h9.59L4.93 13a1 1 0 0 0 1.41 1.41l6.36-6.36a1 1 0 0 0 .01-1.39z"/></symbol><symbol id="star"><path fill="#1d1c1b" d="M8.56 0l2 6.22h6.54l-5.29 3.84 2 6.22-5.25-3.84-5.29 3.84 2-6.22L0 6.22h6.54z"/></symbol><symbol id="time"><path fill="#1d1c1b" d="M9.45 4.5H8.1v5.4l4.72 2.83.68-1.1-4.05-2.41V4.5z"/><path fill="#1d1c1b" d="M17.31 5.56A9 9 0 1 0 18 9a9 9 0 0 0-.69-3.44zm-3.22 8.54A7.2 7.2 0 1 1 16.2 9a7.2 7.2 0 0 1-2.11 5.09z"/></symbol><symbol id="top-arrow-s"><path fill="#1d1c1b" d="M14.44 6.66L8.07.29a1 1 0 0 0-1.41 0L.29 6.66a1 1 0 1 0 1.42 1.41l5.65-5.66L13 8.07a1 1 0 1 0 1.41-1.41z"/></symbol><symbol id="twitter-icon"><path fill="#08c" d="M0 0h24v24H0z"/><path fill="#fff" d="M19.09 5.15L5.18 11.67c1 .47 2.11.95 3.12 1.42C9 12.62 16.05 8 16.22 8a.19.19 0 0 1 .17.19c0 .28-4.8 5.58-5.39 6.24l-.67 3.12 2.53-2.36 3.7 3.81L19 5.1zm-.34-2c1.35-.57 2.53.38 2.19 2.08 0 0-2.28 13-2.53 14.28a1.71 1.71 0 0 1-2.95.95l-2.61-2.65-2.11 2c-1 .85-1.85-.19-2.19-1.23-.17-.57-.84-2.84-1.1-3.78-.84-.38-2.78-1.23-3.29-1.51a1.76 1.76 0 0 1 0-3.31c4.89-2.27 9.78-4.73 14.67-6.9z"/></symbol><symbol id="upload"><path d="M12 0l6 6v10a2 2 0 0 1-2 2H2a2 2 0 0 1-2-2V2a2 2 0 0 1 2-2zm4 16V7h-5V2H2v14zM9 8l4 4h-2.5v3h-3v-3H5z"/></symbol><symbol id="user"><path d="M9 11.85c-3 0-9 1.65-9 4.65V18h18v-1.5c0-3-6-4.65-9-4.65zM9 9a4.5 4.5 0 1 0-3.18-1.32A4.5 4.5 0 0 0 9 9z"/></symbol><symbol id="viber-icon"><path fill="#7c529c" d="M0 0h24v24H0z"/><path fill="#fff" d="M16.22 14a1.66 1.66 0 0 0-1.47 1 1.67 1.67 0 0 1-2.35.54 7.73 7.73 0 0 1-2.4-1.6 7.75 7.75 0 0 1-1.58-2.36A1.68 1.68 0 0 1 9 9.22a1.67 1.67 0 0 0 1-1.48c-.05-1-2.38-4.18-3.3-4.52a1.67 1.67 0 0 0-1.15 0 3.25 3.25 0 0 0-2.2 4.61 23.28 23.28 0 0 0 5 7.79 23.21 23.21 0 0 0 7.77 5 3.24 3.24 0 0 0 4.6-2.2 1.68 1.68 0 0 0 0-1.15c-.33-.87-3.54-3.2-4.5-3.27zM21 9.86a7.45 7.45 0 0 0-2.17-4.6A7.67 7.67 0 0 0 14.05 3a7.14 7.14 0 0 0-1.74.06.62.62 0 0 0 .19 1.22 5.89 5.89 0 0 1 1.44 0 6.43 6.43 0 0 1 4 1.88 6.21 6.21 0 0 1 1.8 3.84 5.63 5.63 0 0 1-.06 1.44.62.62 0 0 0 .5.72h.11a.62.62 0 0 0 .61-.51 6.86 6.86 0 0 0 .1-1.79z"/><path fill="#fff" d="M18.21 11.6h.08a.62.62 0 0 0 .61-.54 4.82 4.82 0 0 0 0-1 5.38 5.38 0 0 0-1.58-3.32 5.61 5.61 0 0 0-3.47-1.64 5.11 5.11 0 0 0-1.09 0 .62.62 0 0 0 .16 1.23 3.87 3.87 0 0 1 .82 0 4.37 4.37 0 0 1 2.7 1.29 4.14 4.14 0 0 1 1.22 2.55 3.57 3.57 0 0 1 0 .75.62.62 0 0 0 .55.68z"/><path fill="#fff" d="M13.7 7.14h-.4a.62.62 0 0 0 .05 1.24h.24a2.32 2.32 0 0 1 2.05 2 1.57 1.57 0 0 1 0 .24.62.62 0 0 0 .57.66.62.62 0 0 0 .62-.58 2.8 2.8 0 0 0 0-.43 3.52 3.52 0 0 0-3.13-3.13z"/></symbol><symbol id="whatsapp-icon"><path fill="#4fce5d" d="M0 0h24v24H0z"/><path fill="#fff" d="M21 11.77a8.85 8.85 0 0 1-13.11 7.68L3 21l1.59-4.7a8.68 8.68 0 0 1-1.27-4.53 8.84 8.84 0 0 1 17.67 0zM12.16 4.4a7.41 7.41 0 0 0-7.43 7.37 7.29 7.29 0 0 0 1.42 4.32l-.93 2.74 2.86-.91A7.39 7.39 0 1 0 12.16 4.4zm4.46 9.39c-.05-.09-.2-.14-.42-.25s-1.28-.63-1.48-.7-.34-.11-.49.11-.56.7-.69.84-.25.16-.47.05a5.93 5.93 0 0 1-1.74-1.07 6.48 6.48 0 0 1-1.2-1.49c-.13-.22 0-.33.1-.44l.32-.38a1.44 1.44 0 0 0 .22-.36.39.39 0 0 0 0-.38l-.67-1.6c-.18-.44-.36-.36-.49-.36h-.42a.8.8 0 0 0-.58.24 2.4 2.4 0 0 0-.76 1.79A4.16 4.16 0 0 0 8.74 12a8.85 8.85 0 0 0 3.7 3.24c2.2.86 2.2.57 2.6.54a2.19 2.19 0 0 0 1.46-1 1.79 1.79 0 0 0 .13-.99z"/></symbol></svg>