<svg xmlns="http://www.w3.org/2000/svg" width="239" height="93" viewBox="0 0 239 93"><path fill="#fff" d="M90 57H62v15h56V57H90zM30.5 72H59V57H3v15h27.5zM208.5 57H180v15h56V57h-27.5zM149.5 57H121v15h56V57h-27.5zM32.5 36H59V21H3v15h29.5zM207.5 21H180v15h56V21h-28.5zM148.5 21H121v15h56V21h-28.5zM93 36h25V21H62v15h31z"/><path fill="#03a49b" d="M121 18h26V3H91v15h30zM60.5 18H88V3H32v15h28.5zM178.5 18H206V3h-56v15h28.5zM178.5 75H150v15h56V75h-27.5zM60.5 75H32v15h56V75H60.5zM118 75H91v15h56V75h-29zM119.5 39H93v15h54V39h-27.5zM177 39h-26.9v15H207V39h-30zM62 54h28V39H34v15h28z"/><path fill="#16334f" d="M237.5 18H209V0H29v18H0v21h31v15H0v21h29v18h180V75h30V54h-29V39h29V18zM177 57v15h-56V57h56zm-59 0v15H62V57h56zm29-3H93V39h54zM62 36V21h56v15H62zm115 0h-56V21h56zM3 21h56v15H3zm31 18h56v15H34zM3 57h56v15H3zm233 15h-56V57h56zm-29-18h-57V39h57zm29-18h-56V21h56zM150 3h56v15h-56zM91 3h56v15H91zM32 3h56v15H32zm56 87H32V75h56zm59 0H91V75h56zm59 0h-56V75h56z"/></svg>