<svg xmlns="http://www.w3.org/2000/svg" width="239" height="93" viewBox="0 0 239 93"><path fill="#fff" d="M147 18V3H91v15h56zM177 36V21h-56v15h56zM152 39h55v15h-55zM32 3h56v15H32zM59 36V21H3v15h56zM148 54V39H93v15h55zM118 36V21H62v15h56zM34 54h56V39H34v15zM206 18V3h-56v15h56zM180 21v15h56V21h-56zM3 57h56v15H3zM180 72h56V57h-56v15zM150 75h56v15h-56zM118 57H62v15h56V57zM32 75h56v15H32zM91 75h56v15H91zM177 57h-56v15h56V57z"/><path fill="#16334f" d="M209 0H29v18H0v21h31v15H0v21h29v18h180V75h30V54h-29V39h29V18h-30zm-59 3h56v15h-56zM62 36V21h56v15H62zm28 3v15H34V39zm3 0h55v15H93zm28-3V21h56v15h-56zm31 3h55v15h-55zM91 3h56v15H91zM32 3h56v15H32zM3 36V21h56v15H3zm0 36V57h56v15zm85 18H32V75h56zM62 72V57h56v15H62zm85 18H91V75h56zm-26-18V57h56v15h-56zm85 18h-56V75h56zm30-33v15h-56V57zm0-36v15h-56V21z"/></svg>