<svg xmlns="http://www.w3.org/2000/svg" width="18" height="18" viewBox="0 0 18 18"><path fill="#1d1c1b" d="M14 13.53l.14-.07.2-.07v-6h-1.76v4.26h-7V0H0v1.77h3.88v11.61l.2.07.14.07a1.33 1.33 0 0 1 .3.23 1.48 1.48 0 0 1 0 2.15 1.39 1.39 0 0 1-.64.38 1.58 1.58 0 0 1-.45.07h-.16a1.51 1.51 0 0 1-.95-.44 1.5 1.5 0 0 1 0-2.15 1.64 1.64 0 0 1 .68-.38v-1.67a3.11 3.11 0 0 0-1.85.89 3.11 3.11 0 0 0 0 4.47 3.18 3.18 0 0 0 2.12.93h.6a3.21 3.21 0 0 0 1.84-.91 3 3 0 0 0 1-2.24 3 3 0 0 0-.32-1.39h5.5a3 3 0 0 0-.32 1.39 3 3 0 0 0 1 2.24 3.15 3.15 0 0 0 2.29.92 3.2 3.2 0 0 0 2.3-.92 3.14 3.14 0 0 0 0-4.47 3.11 3.11 0 0 0-1.85-.89v1.67a1.63 1.63 0 0 1 .65.38 1.51 1.51 0 0 1 0 2.15 1.5 1.5 0 0 1-1.1.44 1.53 1.53 0 0 1-1.1-.44 1.5 1.5 0 0 1 0-2.15 1.57 1.57 0 0 1 .24-.25z"/></svg>