<svg xmlns="http://www.w3.org/2000/svg" width="74" height="46" viewBox="0 0 74 46"><path fill="#16334f" d="M11.77 10.25h25.54v4.54H11.77zM6.79 17.51h23.55v4.54H6.79zM0 24.77h18.57v4.54H0z"/><path fill="#16334f" d="M73.73 25.77l-7.34-15.34a2.21 2.21 0 0 0-2.08-1.27H57.7V2.27A2.24 2.24 0 0 0 55.43 0H22.82v4.54h30.44v30.3a7.45 7.45 0 0 0-1.45 2.27H29.26a6.62 6.62 0 1 0 0 4.54h22.55a6.66 6.66 0 0 0 12.5 0h7.43A2.24 2.24 0 0 0 74 39.38V26.77a2.07 2.07 0 0 0-.27-1zM23 41.55a2.09 2.09 0 1 1 2.08-2.09A2.05 2.05 0 0 1 23 41.55zm35.05 0a2.09 2.09 0 1 1 2.08-2.09 2.05 2.05 0 0 1-2.07 2.09zm11.42-4.35h-5.16a6.6 6.6 0 0 0-6.25-4.36h-.27V13.7h5.16l6.52 13.61z"/></svg>