<svg xmlns="http://www.w3.org/2000/svg" width="60" height="46" viewBox="0 0 60 46"><path fill="#16334f" d="M0 14.61h14.86v3.99H0zM0 27.37h14.86v3.99H0zM5.37 20.99H16.2v3.99H5.37z"/><path fill="#16334f" d="M59 21.23l-11.81-6.54-5.06-13.4A2.18 2.18 0 0 0 40.55 0a1.93 1.93 0 0 0-1.82.72l-7 8.93L17.07 8a2 2 0 0 0-1.9 1 2.1 2.1 0 0 0 0 2.15L22.92 23l-7.66 11.87a1.84 1.84 0 0 0-.32 1.13 1.61 1.61 0 0 0 .32 1 2 2 0 0 0 1.9 1l14.62-1.67 7 8.93a1.6 1.6 0 0 0 1.74.72 2 2 0 0 0 1.58-1.28l5.06-13.4L59 24.74A2 2 0 0 0 60 23a2.08 2.08 0 0 0-1-1.77zm-14.42 6.94a1.88 1.88 0 0 0-.87 1L39.6 40.06 34.07 33a1.86 1.86 0 0 0-1.74-.72l-11.54 1.24 6.09-9.41a2.1 2.1 0 0 0 0-2.15l-6.09-9.41 11.54 1.28a2 2 0 0 0 1.74-.72L39.6 6l4.11 10.85a1.88 1.88 0 0 0 .87 1L53.91 23z"/></svg>