<svg xmlns="http://www.w3.org/2000/svg" width="46" height="46" viewBox="0 0 46 46"><path fill="#16334f" d="M46 20.69L44.79 2.94a1.92 1.92 0 0 0-1.72-1.72L25.31 0a1.71 1.71 0 0 0-1.42.52L.52 23.91A1.8 1.8 0 0 0 0 25.25a2.15 2.15 0 0 0 .52 1.35l18.95 18.88a2 2 0 0 0 2.7 0l23.29-23.37a1.71 1.71 0 0 0 .54-1.42zM20.82 41.51L4.49 25.18 25.91 3.76l15.28 1 1 15.28z"/><path fill="#16334f" d="M32.43 8a5.69 5.69 0 0 0-3.89 1.6A5.37 5.37 0 0 0 27 13.5a5.69 5.69 0 0 0 1.57 3.89A5.37 5.37 0 0 0 32.43 19a5.69 5.69 0 0 0 3.89-1.57 5.37 5.37 0 0 0 1.58-3.93 5.69 5.69 0 0 0-1.58-3.9A5.69 5.69 0 0 0 32.43 8zm1.27 6.74a1.76 1.76 0 0 1-3-1.2 1.49 1.49 0 0 1 .52-1.2 1.77 1.77 0 0 1 1.2-.52 1.49 1.49 0 0 1 1.2.52 1.77 1.77 0 0 1 .52 1.2 1.43 1.43 0 0 1-.44 1.23z"/><circle cx="16.25" cy="21.36" r="2.7" fill="#16334f"/><circle cx="24.34" cy="28.7" r="2.7" fill="#16334f"/><path fill="#16334f" d="M14.4 28.19l7.9-7.9 2.64 2.65-7.9 7.9z"/></svg>