<svg xmlns="http://www.w3.org/2000/svg" width="24" height="24" viewBox="0 0 24 24"><path fill="#08c" d="M0 0h24v24H0z"/><path fill="#fff" d="M19.09 5.15L5.18 11.67c1 .47 2.11.95 3.12 1.42C9 12.62 16.05 8 16.22 8a.19.19 0 0 1 .17.19c0 .28-4.8 5.58-5.39 6.24l-.67 3.12 2.53-2.36 3.7 3.81L19 5.1zm-.34-2c1.35-.57 2.53.38 2.19 2.08 0 0-2.28 13-2.53 14.28a1.71 1.71 0 0 1-2.95.95l-2.61-2.65-2.11 2c-1 .85-1.85-.19-2.19-1.23-.17-.57-.84-2.84-1.1-3.78-.84-.38-2.78-1.23-3.29-1.51a1.76 1.76 0 0 1 0-3.31c4.89-2.27 9.78-4.73 14.67-6.9z"/></svg>