<svg xmlns="http://www.w3.org/2000/svg" width="24" height="24" viewBox="0 0 24 24"><path fill="#4fce5d" d="M0 0h24v24H0z"/><path fill="#fff" d="M21 11.77a8.85 8.85 0 0 1-13.11 7.68L3 21l1.59-4.7a8.68 8.68 0 0 1-1.27-4.53 8.84 8.84 0 0 1 17.67 0zM12.16 4.4a7.41 7.41 0 0 0-7.43 7.37 7.29 7.29 0 0 0 1.42 4.32l-.93 2.74 2.86-.91A7.39 7.39 0 1 0 12.16 4.4zm4.46 9.39c-.05-.09-.2-.14-.42-.25s-1.28-.63-1.48-.7-.34-.11-.49.11-.56.7-.69.84-.25.16-.47.05a5.93 5.93 0 0 1-1.74-1.07 6.48 6.48 0 0 1-1.2-1.49c-.13-.22 0-.33.1-.44l.32-.38a1.44 1.44 0 0 0 .22-.36.39.39 0 0 0 0-.38l-.67-1.6c-.18-.44-.36-.36-.49-.36h-.42a.8.8 0 0 0-.58.24 2.4 2.4 0 0 0-.76 1.79A4.16 4.16 0 0 0 8.74 12a8.85 8.85 0 0 0 3.7 3.24c2.2.86 2.2.57 2.6.54a2.19 2.19 0 0 0 1.46-1 1.79 1.79 0 0 0 .13-.99z"/></svg>