<svg xmlns="http://www.w3.org/2000/svg" width="74" height="46" viewBox="0 0 74 46"><path fill="#16334f" d="M11.8 10.3h25.5v4.5H11.8zm-5 7.2h23.5v4.6H6.8zM0 24.8h18.6v4.5H0z"/><path fill="#16334f" d="M73.7 25.8l-7.3-15.4a2.2 2.2 0 0 0-2-1.2h-6.7v-7A2.2 2.2 0 0 0 55.4 0H22.8v4.5h30.5v30.3a7.5 7.5 0 0 0-1.5 2.3H29.3a6.6 6.6 0 1 0 0 4.6h22.5a6.7 6.7 0 0 0 12.5 0h7.4a2.2 2.2 0 0 0 2.3-2.3V26.8a2 2 0 0 0-.3-1zM23 41.5a2 2 0 1 1 2-2 2 2 0 0 1-2 2zm35 0a2 2 0 1 1 2.1-2 2 2 0 0 1-2 2zm11.5-4.3h-5.2a6.6 6.6 0 0 0-6.2-4.4h-.3V13.7H63l6.5 13.6z"/></svg>